#define thisisfine01_width 128
#define thisisfine01_height 64
static unsigned char thisisfine01_bits[] = {
   0x00, 0x00, 0x00, 0x00, 0x00, 0x00, 0x00, 0x00, 0x00, 0x00, 0x00, 0x00,
   0x00, 0x00, 0x00, 0x00, 0x00, 0x00, 0x00, 0x00, 0x00, 0x00, 0x00, 0x00,
   0x00, 0x00, 0x00, 0x00, 0x00, 0x00, 0x00, 0x00, 0x00, 0x00, 0x00, 0x00,
   0x00, 0x00, 0x00, 0x00, 0x00, 0x00, 0x00, 0x00, 0x00, 0x00, 0x00, 0x00,
   0x00, 0x00, 0x00, 0x00, 0x00, 0x00, 0x00, 0x00, 0x00, 0x00, 0x00, 0x00,
   0x00, 0x00, 0x00, 0x00, 0x00, 0x00, 0x00, 0x00, 0x00, 0x00, 0x00, 0x00,
   0x00, 0x00, 0x00, 0x00, 0x00, 0x00, 0x00, 0x00, 0x00, 0x00, 0x00, 0x00,
   0x00, 0x00, 0x00, 0x00, 0x00, 0x00, 0x00, 0x00, 0x00, 0x00, 0x00, 0x00,
   0x00, 0x00, 0x00, 0x00, 0x00, 0x00, 0x00, 0x00, 0x00, 0x00, 0x00, 0x00,
   0x00, 0x00, 0x00, 0x00, 0x00, 0x00, 0x00, 0x00, 0x00, 0x00, 0x00, 0x00,
   0x00, 0x00, 0x00, 0x00, 0x00, 0x00, 0x00, 0x00, 0x00, 0x00, 0x00, 0x00,
   0x00, 0x00, 0x00, 0x00, 0x00, 0x00, 0x00, 0x00, 0x00, 0x00, 0x00, 0x00,
   0x00, 0x00, 0x00, 0x00, 0x00, 0x00, 0x00, 0x00, 0x00, 0x00, 0x00, 0x00,
   0x00, 0x00, 0x00, 0x00, 0x00, 0x00, 0xf0, 0x01, 0x00, 0x00, 0x00, 0x00,
   0x00, 0x00, 0x00, 0x00, 0x00, 0x00, 0x00, 0x00, 0x00, 0x00, 0x18, 0x07,
   0x00, 0x00, 0x00, 0x00, 0x00, 0x00, 0x00, 0x00, 0x00, 0x00, 0x00, 0x00,
   0x30, 0x06, 0x08, 0x0c, 0x00, 0x00, 0x00, 0x00, 0x00, 0x00, 0x00, 0x00,
   0x00, 0x00, 0x00, 0x00, 0x28, 0x07, 0x08, 0x08, 0x00, 0x00, 0x00, 0x00,
   0x00, 0x00, 0x00, 0x00, 0x00, 0x00, 0x00, 0x00, 0xbc, 0x03, 0x0c, 0x18,
   0x00, 0x00, 0x00, 0x00, 0x00, 0x00, 0x00, 0x00, 0x00, 0x00, 0x00, 0x00,
   0xd6, 0x02, 0x04, 0x90, 0x03, 0x00, 0x00, 0x00, 0x00, 0x00, 0x00, 0x00,
   0x00, 0x00, 0x00, 0x00, 0x72, 0x03, 0x04, 0x78, 0x02, 0x00, 0x00, 0x00,
   0x00, 0x00, 0x00, 0x00, 0x08, 0x00, 0x00, 0x00, 0x33, 0x01, 0x04, 0x0c,
   0x02, 0x00, 0x00, 0x00, 0x00, 0x00, 0x00, 0x00, 0x0c, 0x00, 0x00, 0x00,
   0x01, 0x01, 0xe0, 0x03, 0x02, 0x00, 0x00, 0x00, 0x00, 0x00, 0x00, 0x00,
   0x0e, 0x00, 0x00, 0x00, 0x80, 0xe1, 0x3f, 0x00, 0x03, 0x00, 0x00, 0x00,
   0x00, 0x00, 0x00, 0x00, 0x0b, 0x00, 0x00, 0x00, 0x80, 0x30, 0x00, 0x00,
   0x01, 0x00, 0x00, 0x00, 0x00, 0x00, 0x08, 0x80, 0x09, 0x00, 0x00, 0x00,
   0x80, 0x10, 0x00, 0xc0, 0x06, 0x00, 0x00, 0x00, 0x00, 0x00, 0x0c, 0xc0,
   0x10, 0x00, 0x00, 0x00, 0x80, 0x10, 0x00, 0x60, 0x0c, 0x00, 0x00, 0x00,
   0x00, 0x00, 0x0e, 0x60, 0x10, 0x00, 0x00, 0x00, 0x00, 0x90, 0x0f, 0x3e,
   0x18, 0x00, 0x00, 0x00, 0x00, 0x00, 0x0b, 0x30, 0x10, 0x00, 0x00, 0x00,
   0x00, 0x60, 0xf8, 0x03, 0x10, 0x00, 0x00, 0x00, 0x00, 0x80, 0x11, 0x08,
   0x30, 0x00, 0x00, 0x1c, 0x00, 0x80, 0x00, 0x00, 0xf0, 0x01, 0x00, 0x00,
   0x00, 0x80, 0x10, 0x06, 0x20, 0x80, 0x01, 0x16, 0x00, 0xc0, 0x00, 0x00,
   0x0c, 0x06, 0x00, 0x00, 0x10, 0x60, 0x10, 0x03, 0x63, 0xc0, 0x01, 0x13,
   0x00, 0xc0, 0x00, 0x7c, 0x04, 0x04, 0x00, 0x00, 0x18, 0x20, 0xd0, 0x81,
   0x43, 0x40, 0x82, 0x11, 0x00, 0xe0, 0x01, 0x83, 0xc3, 0x09, 0x00, 0x00,
   0x38, 0x30, 0x70, 0xc0, 0xc2, 0x60, 0x82, 0x20, 0x00, 0xf0, 0x01, 0x01,
   0xe3, 0x0b, 0x00, 0x00, 0x28, 0x18, 0x03, 0x40, 0x84, 0x30, 0x42, 0x60,
   0x00, 0xf8, 0x81, 0x38, 0xf2, 0x0f, 0x00, 0x00, 0x24, 0x0c, 0x03, 0x70,
   0x04, 0x11, 0x22, 0x40, 0x00, 0xfc, 0x81, 0x7c, 0xf2, 0x0f, 0x38, 0x00,
   0x24, 0x86, 0x03, 0x18, 0x04, 0x1b, 0x16, 0x46, 0x00, 0xfe, 0x83, 0xfe,
   0xf2, 0x0f, 0x7c, 0x00, 0x22, 0xc3, 0x02, 0x0e, 0x08, 0x0a, 0x0c, 0xca,
   0x00, 0xfe, 0x83, 0xfe, 0xe6, 0x07, 0xfe, 0x00, 0x43, 0x41, 0x86, 0x03,
   0x18, 0x0c, 0x00, 0x89, 0x00, 0xff, 0x83, 0xfe, 0xce, 0x07, 0xff, 0x00,
   0xc1, 0x60, 0x04, 0x00, 0x30, 0xc0, 0x80, 0x88, 0x00, 0xff, 0x03, 0x7d,
   0xf1, 0xf1, 0xff, 0x80, 0xc8, 0x30, 0x04, 0x00, 0x20, 0xe0, 0xc0, 0x90,
   0x00, 0xff, 0x03, 0xbb, 0x01, 0x9e, 0xff, 0xc0, 0x0c, 0x1c, 0x08, 0x00,
   0x60, 0xa0, 0x60, 0x90, 0x00, 0xff, 0x01, 0x7c, 0x00, 0x80, 0x7f, 0x30,
   0x0e, 0x00, 0x08, 0x00, 0x40, 0x30, 0x31, 0x90, 0x00, 0xfe, 0x01, 0x00,
   0x00, 0x00, 0xbf, 0x10, 0x1a, 0x00, 0x00, 0x00, 0x00, 0x00, 0x01, 0x20,
   0x00, 0xfc, 0x00, 0x00, 0x04, 0x00, 0x9e, 0x00, 0x31, 0x00, 0x00, 0x00,
   0x00, 0x00, 0x00, 0x20, 0x00, 0x00, 0x01, 0x00, 0x02, 0x00, 0x80, 0x00,
   0x20, 0x00, 0x00, 0x00, 0x00, 0x00, 0x00, 0x20, 0x00, 0x80, 0x01, 0x00,
   0x0d, 0x00, 0x40, 0x00, 0x00, 0x00, 0x00, 0x00, 0x00, 0x00, 0x00, 0x00,
   0x00, 0xc0, 0x00, 0x80, 0x7c, 0x00, 0x3c, 0x00, 0x00, 0x00, 0x00, 0x00,
   0x00, 0x00, 0x00, 0x00, 0x00, 0x60, 0x00, 0x40, 0xbe, 0xff, 0x07, 0x00,
   0x00, 0x00, 0x00, 0x00, 0x00, 0x00, 0x00, 0x00, 0x00, 0x20, 0x00, 0x20,
   0x3e, 0x47, 0x00, 0x00, 0x00, 0x00, 0x00, 0x00, 0x00, 0x00, 0x00, 0x00,
   0x00, 0x20, 0x00, 0x50, 0x3c, 0x47, 0x00, 0x00, 0x00, 0x00, 0x00, 0xfc,
   0x0f, 0x00, 0x00, 0x00, 0x00, 0x30, 0x00, 0x80, 0x00, 0x20, 0x00, 0x00,
   0x00, 0x00, 0x00, 0x02, 0xf0, 0x03, 0x00, 0x00, 0x00, 0x10, 0x08, 0x00,
   0x03, 0x10, 0x00, 0x00, 0x00, 0x00, 0x00, 0x02, 0xf0, 0x07, 0x00, 0x00,
   0x00, 0x10, 0x48, 0x00, 0x7e, 0x08, 0x00, 0x00, 0x00, 0x00, 0x00, 0x0e,
   0x18, 0x07, 0x00, 0x00, 0x00, 0x10, 0x4c, 0x00, 0x80, 0x07, 0x00, 0x00,
   0x00, 0x00, 0x00, 0xfe, 0x1f, 0x06, 0x00, 0x00, 0x00, 0x18, 0x44, 0x00,
   0x00, 0x18, 0x00, 0x00, 0x00, 0x00, 0x00, 0xfe, 0x1f, 0x07, 0x00, 0x00,
   0x00, 0x08, 0x44, 0x00, 0x00, 0x10, 0x00, 0x00, 0x00, 0x00, 0x00, 0xfe,
   0xff, 0x07, 0x00, 0x00, 0x00, 0x08, 0x64, 0x00, 0x00, 0x30, 0x00, 0x00,
   0x00, 0x00, 0x00, 0xfe, 0xff, 0x03, 0x00, 0x00, 0x00, 0x08, 0x24, 0x00,
   0x00, 0x20, 0x00, 0x00, 0x00, 0x00, 0x00, 0xfe, 0x1f, 0x00, 0x00, 0x00,
   0x00, 0x08, 0x24, 0x00, 0x00, 0x20, 0x00, 0x00, 0x00, 0x00, 0x00, 0xfe,
   0xff, 0x00, 0x00, 0x00, 0x00, 0x08, 0x24, 0x00, 0x00, 0x20, 0x00, 0x00,
   0x00, 0x00, 0xc0, 0xff, 0x9f, 0x7f, 0x00, 0x00, 0x00, 0x18, 0x24, 0x00,
   0x00, 0x20, 0x00, 0x00, 0x00, 0x00, 0x78, 0xfe, 0x1f, 0xc0, 0x0f, 0x00,
   0x00, 0x10, 0x24, 0x00, 0x00, 0x20, 0x00, 0x00, 0x00, 0x00, 0x0f, 0xfe,
   0x1f, 0x00, 0xf8, 0x00, 0x00, 0x10, 0x64, 0x00, 0x00, 0x30, 0x00, 0x00,
   0x00, 0x80, 0x01, 0xfc, 0x0f, 0x00, 0x80, 0x0f, 0x00, 0x10, 0x44, 0x00,
   0x00, 0x10, 0x00, 0x00, 0x00, 0x80, 0x00, 0x00, 0x00, 0x00, 0x00, 0x38,
   0x00, 0x10, 0x44, 0x00, 0x00, 0x18, 0x00, 0x00, 0x00, 0xc0, 0x00, 0x00,
   0x00, 0x00, 0x00, 0xc0, 0x00, 0x30, 0x44, 0x00, 0x00, 0x0c, 0x00, 0x00,
   0x00, 0x40, 0x00, 0x00, 0x00, 0x00, 0x00, 0x00, 0x00, 0x20, 0xcc, 0x00,
   0x00, 0x04, 0x00, 0x00, 0x00, 0x40, 0x00, 0x00, 0x00, 0x00, 0x00, 0x00,
   0x00, 0x20, 0x88, 0x00, 0x00, 0x04, 0x00, 0x00, 0x00, 0x40, 0x00, 0x00,
   0x00, 0x00, 0x00, 0x00};
