#define thisisfine03_width 128
#define thisisfine03_height 64
static unsigned char thisisfine03_bits[] = {
   0x00, 0x00, 0x00, 0x00, 0x00, 0x00, 0x00, 0x00, 0x00, 0x00, 0x00, 0x00,
   0x00, 0x00, 0x00, 0x00, 0x00, 0x00, 0x00, 0x00, 0x00, 0x00, 0x00, 0x00,
   0x00, 0x00, 0x00, 0x00, 0x00, 0x00, 0x00, 0x00, 0x00, 0x00, 0x00, 0x00,
   0x00, 0x00, 0x00, 0x00, 0x00, 0x00, 0x00, 0x00, 0x00, 0x00, 0x00, 0x00,
   0x00, 0x00, 0x00, 0x00, 0x00, 0x00, 0x00, 0x00, 0x00, 0x00, 0x00, 0x00,
   0x00, 0x00, 0x00, 0x00, 0x00, 0x00, 0x00, 0x00, 0x00, 0x00, 0x00, 0x00,
   0x00, 0x00, 0x00, 0x00, 0x00, 0x00, 0x00, 0x00, 0x00, 0x00, 0x00, 0x00,
   0x00, 0x00, 0x00, 0x00, 0x00, 0x00, 0x00, 0x00, 0x00, 0x00, 0x00, 0x00,
   0x00, 0x00, 0x00, 0x00, 0x00, 0x00, 0x00, 0x00, 0x00, 0x00, 0x00, 0x00,
   0x00, 0x00, 0x00, 0x00, 0x00, 0x00, 0x00, 0x00, 0x00, 0x00, 0x00, 0x00,
   0x00, 0x00, 0x00, 0x00, 0x00, 0x00, 0x00, 0x00, 0x10, 0x00, 0x00, 0x00,
   0x00, 0x00, 0x00, 0x00, 0x00, 0x00, 0x00, 0x00, 0x00, 0x00, 0x00, 0x00,
   0x38, 0x02, 0x00, 0x00, 0x00, 0x00, 0x00, 0x00, 0x00, 0x00, 0x00, 0x00,
   0x00, 0x00, 0x00, 0x00, 0x2e, 0x02, 0xf0, 0x01, 0x00, 0x00, 0x00, 0x00,
   0x00, 0x00, 0x00, 0x00, 0x10, 0x00, 0x00, 0x00, 0x23, 0x07, 0x18, 0x07,
   0x00, 0x00, 0x00, 0x00, 0x00, 0x00, 0x00, 0x00, 0x10, 0x00, 0x00, 0x00,
   0x21, 0x05, 0x08, 0x0c, 0x00, 0x00, 0x00, 0x00, 0x00, 0x00, 0x04, 0x00,
   0x18, 0x00, 0x00, 0x10, 0x20, 0x0c, 0x08, 0x08, 0x00, 0x00, 0x00, 0x00,
   0x00, 0x00, 0x0c, 0x00, 0x24, 0x00, 0x00, 0x18, 0x00, 0x08, 0x0c, 0x18,
   0x00, 0x00, 0x00, 0x00, 0x08, 0x00, 0x1c, 0x00, 0x46, 0x00, 0x00, 0x38,
   0x00, 0x08, 0x04, 0x90, 0x03, 0x00, 0x00, 0x00, 0x18, 0x00, 0x16, 0x00,
   0xc2, 0x00, 0x00, 0x24, 0x8c, 0x0d, 0x04, 0x78, 0x02, 0x00, 0x00, 0x00,
   0x18, 0x00, 0x32, 0x00, 0x83, 0x20, 0x00, 0x44, 0x8e, 0x05, 0x04, 0x0c,
   0x02, 0x00, 0x00, 0x00, 0x38, 0x00, 0x23, 0xc0, 0x81, 0x31, 0x00, 0x86,
   0xc9, 0x05, 0xe0, 0x03, 0x02, 0x00, 0x00, 0x00, 0x2c, 0x80, 0x41, 0x60,
   0x0c, 0x79, 0x00, 0x82, 0x48, 0xe1, 0x3f, 0x00, 0x03, 0x00, 0x00, 0x00,
   0x64, 0xc0, 0xc0, 0x20, 0x0a, 0xcb, 0x00, 0x81, 0x00, 0x31, 0x00, 0x00,
   0x01, 0x00, 0x00, 0x00, 0x44, 0x70, 0x8c, 0x10, 0x33, 0x8e, 0x81, 0x80,
   0x00, 0x10, 0x00, 0xc0, 0x06, 0x00, 0x00, 0x00, 0xc6, 0x18, 0x96, 0x99,
   0x21, 0x06, 0x70, 0x00, 0x00, 0x10, 0x00, 0x60, 0x0c, 0x00, 0x00, 0x00,
   0x82, 0x00, 0x13, 0xc9, 0x60, 0x00, 0x18, 0x0c, 0x02, 0x90, 0x0f, 0x3e,
   0x18, 0x00, 0x00, 0x00, 0x83, 0x83, 0x21, 0x60, 0x40, 0x30, 0x00, 0x0c,
   0x00, 0x60, 0xf8, 0x03, 0x10, 0x00, 0x00, 0x80, 0x11, 0x66, 0x40, 0x30,
   0x40, 0x30, 0x00, 0x7a, 0x40, 0x80, 0x00, 0x00, 0xf0, 0x01, 0x00, 0xc0,
   0x38, 0x20, 0x00, 0x18, 0x80, 0x48, 0x00, 0xc3, 0x00, 0xc0, 0x00, 0x00,
   0x0c, 0x06, 0x00, 0x60, 0x28, 0x00, 0x00, 0x04, 0x84, 0xc8, 0x80, 0x81,
   0x00, 0xc0, 0x00, 0x7c, 0x04, 0x04, 0x00, 0x20, 0x68, 0x00, 0x00, 0x03,
   0x86, 0x88, 0x60, 0x00, 0x00, 0xe0, 0x01, 0x83, 0xc3, 0x09, 0x00, 0x20,
   0x44, 0x00, 0x80, 0x01, 0x03, 0x80, 0x38, 0x00, 0x00, 0xf0, 0x01, 0x01,
   0xe3, 0x0b, 0x00, 0x00, 0x84, 0x81, 0xc1, 0x00, 0x01, 0x00, 0x01, 0x78,
   0x00, 0xf8, 0x81, 0x38, 0xf2, 0x0f, 0x00, 0x00, 0x03, 0xc0, 0x00, 0x00,
   0x00, 0x00, 0x03, 0x0c, 0x00, 0xfc, 0x81, 0x7c, 0xf2, 0x0f, 0x38, 0x00,
   0x01, 0x60, 0x00, 0x00, 0x00, 0x00, 0x02, 0x00, 0x00, 0xfe, 0x83, 0xfe,
   0xf2, 0x0f, 0x7c, 0x00, 0x00, 0x20, 0x00, 0x00, 0x00, 0x08, 0x00, 0x00,
   0x00, 0xfe, 0x83, 0xfe, 0xe6, 0x07, 0xfe, 0x00, 0x00, 0x00, 0x00, 0x00,
   0x00, 0x06, 0x00, 0x00, 0x00, 0xff, 0x83, 0xfe, 0xce, 0x07, 0xff, 0x00,
   0x02, 0x00, 0x00, 0x04, 0x00, 0x02, 0x00, 0x00, 0x00, 0xff, 0x03, 0x7d,
   0xf1, 0xf1, 0xff, 0x00, 0x0f, 0x00, 0x00, 0x0e, 0x00, 0x00, 0x00, 0x00,
   0x00, 0xff, 0x03, 0xbb, 0x01, 0x9e, 0xff, 0x00, 0x09, 0x00, 0x80, 0x0b,
   0x00, 0x00, 0x00, 0x00, 0x00, 0xff, 0x01, 0x7c, 0x00, 0x80, 0x7f, 0x00,
   0x00, 0x00, 0xe0, 0x18, 0x00, 0x00, 0x00, 0x00, 0x00, 0xfe, 0x01, 0x00,
   0x00, 0x00, 0xbf, 0x00, 0x00, 0x00, 0x00, 0x00, 0x00, 0x00, 0x00, 0x00,
   0x00, 0xfc, 0x00, 0x00, 0x04, 0x00, 0x9e, 0x00, 0x00, 0x00, 0x00, 0x00,
   0x00, 0x00, 0x00, 0x00, 0x00, 0x00, 0x01, 0x00, 0x02, 0x00, 0x80, 0x00,
   0x00, 0x00, 0x00, 0x00, 0x00, 0x00, 0x00, 0x00, 0x00, 0x80, 0x01, 0x00,
   0x0d, 0x00, 0x40, 0x00, 0x00, 0x00, 0x00, 0x00, 0x00, 0x00, 0x00, 0x00,
   0x00, 0xc0, 0x00, 0x80, 0x7c, 0x00, 0x3c, 0x00, 0x00, 0x00, 0x00, 0x00,
   0x00, 0x00, 0x00, 0x00, 0x00, 0x60, 0x00, 0x40, 0xbe, 0xff, 0x07, 0x00,
   0x00, 0x00, 0x00, 0x00, 0x00, 0x00, 0x00, 0x00, 0x00, 0x20, 0x00, 0x20,
   0x3e, 0x47, 0x00, 0x00, 0x00, 0x00, 0x00, 0x00, 0x00, 0x00, 0x00, 0x00,
   0x00, 0x20, 0x00, 0x50, 0x3c, 0x47, 0x00, 0x00, 0x00, 0x00, 0x00, 0xfc,
   0x0f, 0x00, 0x00, 0x00, 0x00, 0x30, 0x00, 0x80, 0x00, 0x20, 0x00, 0x00,
   0x00, 0x00, 0x00, 0x02, 0xf0, 0x03, 0x00, 0x00, 0x00, 0x10, 0x08, 0x00,
   0x03, 0x10, 0x00, 0x00, 0x00, 0x00, 0x00, 0x02, 0xf0, 0x07, 0x00, 0x00,
   0x00, 0x10, 0x48, 0x00, 0x7e, 0x08, 0x00, 0x00, 0x00, 0x00, 0x00, 0x0e,
   0x18, 0x07, 0x00, 0x00, 0x00, 0x10, 0x4c, 0x00, 0x80, 0x07, 0x00, 0x00,
   0x00, 0x00, 0x00, 0xfe, 0x1f, 0x06, 0x00, 0x00, 0x00, 0x18, 0x44, 0x00,
   0x00, 0x18, 0x00, 0x00, 0x00, 0x00, 0x00, 0xfe, 0x1f, 0x07, 0x00, 0x00,
   0x00, 0x08, 0x44, 0x00, 0x00, 0x10, 0x00, 0x00, 0x00, 0x00, 0x00, 0xfe,
   0xff, 0x07, 0x00, 0x00, 0x00, 0x08, 0x64, 0x00, 0x00, 0x30, 0x00, 0x00,
   0x00, 0x00, 0x00, 0xfe, 0xff, 0x03, 0x00, 0x00, 0x00, 0x08, 0x24, 0x00,
   0x00, 0x20, 0x00, 0x00, 0x00, 0x00, 0x00, 0xfe, 0x1f, 0x00, 0x00, 0x00,
   0x00, 0x08, 0x24, 0x00, 0x00, 0x20, 0x00, 0x00, 0x00, 0x00, 0x00, 0xfe,
   0xff, 0x00, 0x00, 0x00, 0x00, 0x08, 0x24, 0x00, 0x00, 0x20, 0x00, 0x00,
   0x00, 0x00, 0xc0, 0xff, 0x9f, 0x7f, 0x00, 0x00, 0x00, 0x18, 0x24, 0x00,
   0x00, 0x20, 0x00, 0x00, 0x00, 0x00, 0x78, 0xfe, 0x1f, 0xc0, 0x0f, 0x00,
   0x00, 0x10, 0x24, 0x00, 0x00, 0x20, 0x00, 0x00, 0x00, 0x00, 0x0f, 0xfe,
   0x1f, 0x00, 0xf8, 0x00, 0x00, 0x10, 0x64, 0x00, 0x00, 0x30, 0x00, 0x00,
   0x00, 0x80, 0x01, 0xfc, 0x0f, 0x00, 0x80, 0x0f, 0x00, 0x10, 0x44, 0x00,
   0x00, 0x10, 0x00, 0x00, 0x00, 0x80, 0x00, 0x00, 0x00, 0x00, 0x00, 0x38,
   0x00, 0x10, 0x44, 0x00, 0x00, 0x18, 0x00, 0x00, 0x00, 0xc0, 0x00, 0x00,
   0x00, 0x00, 0x00, 0xc0, 0x00, 0x30, 0x44, 0x00, 0x00, 0x0c, 0x00, 0x00,
   0x00, 0x40, 0x00, 0x00, 0x00, 0x00, 0x00, 0x00, 0x00, 0x20, 0xcc, 0x00,
   0x00, 0x04, 0x00, 0x00, 0x00, 0x40, 0x00, 0x00, 0x00, 0x00, 0x00, 0x00,
   0x00, 0x20, 0x88, 0x00, 0x00, 0x04, 0x00, 0x00, 0x00, 0x40, 0x00, 0x00,
   0x00, 0x00, 0x00, 0x00};
