#define thisisfine2_width 128
#define thisisfine2_height 64
static unsigned char thisisfine2_bits[] = {
   0x00, 0x00, 0x00, 0x00, 0x00, 0x00, 0x00, 0x00, 0x00, 0x00, 0x00, 0x00,
   0x00, 0x00, 0xa0, 0x80, 0x00, 0x00, 0x00, 0x00, 0x00, 0x00, 0x00, 0x00,
   0x00, 0x00, 0x00, 0x00, 0x00, 0x00, 0x00, 0x40, 0x00, 0x00, 0x00, 0x00,
   0x00, 0x00, 0x00, 0x00, 0x00, 0x00, 0x00, 0x00, 0x00, 0x00, 0x00, 0x20,
   0x00, 0x00, 0x00, 0x00, 0x00, 0x00, 0x00, 0x00, 0x00, 0x00, 0x00, 0x00,
   0x00, 0x00, 0x00, 0x10, 0x00, 0x00, 0x10, 0x00, 0x0f, 0x00, 0x00, 0x00,
   0x00, 0x00, 0x00, 0x00, 0x00, 0x00, 0x00, 0x08, 0x00, 0x00, 0x50, 0x80,
   0x71, 0x00, 0x00, 0x00, 0x00, 0x00, 0x00, 0x00, 0x00, 0x00, 0x00, 0x04,
   0x00, 0x00, 0x70, 0x60, 0xc0, 0x00, 0x00, 0x00, 0x00, 0x00, 0x00, 0x00,
   0x00, 0x00, 0x00, 0x02, 0x00, 0x00, 0x38, 0x20, 0x80, 0x00, 0x00, 0x00,
   0x00, 0x00, 0x00, 0x00, 0x00, 0x00, 0x00, 0x01, 0x00, 0x00, 0x38, 0x20,
   0x80, 0x00, 0x00, 0x00, 0x00, 0x00, 0x00, 0x00, 0x00, 0x00, 0x00, 0x00,
   0x00, 0x00, 0x38, 0x20, 0x80, 0x00, 0x00, 0x00, 0x00, 0x00, 0x00, 0x00,
   0x00, 0x00, 0x00, 0x00, 0x00, 0x00, 0x3c, 0x10, 0x80, 0x30, 0x00, 0x00,
   0x00, 0x00, 0x00, 0x00, 0x00, 0x00, 0x00, 0x00, 0x00, 0x01, 0x34, 0x10,
   0xe0, 0xcf, 0x01, 0x00, 0x00, 0x00, 0x00, 0x00, 0x00, 0x00, 0x00, 0x00,
   0x00, 0x01, 0x10, 0x30, 0xff, 0x01, 0x01, 0x00, 0x00, 0x00, 0x00, 0x00,
   0x00, 0x00, 0x00, 0x00, 0x00, 0x01, 0x14, 0xf0, 0xff, 0x00, 0x01, 0x00,
   0x00, 0x00, 0x00, 0x00, 0x00, 0x00, 0x00, 0x00, 0x00, 0x01, 0x1c, 0xf0,
   0x07, 0x00, 0x01, 0x00, 0x00, 0x00, 0x00, 0x00, 0x00, 0x00, 0x00, 0x00,
   0x00, 0x01, 0x1a, 0x3e, 0x00, 0x80, 0x03, 0x00, 0x00, 0x00, 0x00, 0x00,
   0x00, 0x00, 0x00, 0x00, 0x80, 0x01, 0x1a, 0x03, 0x00, 0x60, 0x0e, 0x00,
   0x00, 0x00, 0x00, 0x00, 0x00, 0x00, 0x00, 0x00, 0x80, 0x01, 0x1a, 0x03,
   0x0c, 0x20, 0x08, 0x00, 0x00, 0x00, 0x00, 0x00, 0x00, 0x00, 0x00, 0x00,
   0x80, 0x01, 0x1d, 0x3e, 0xff, 0x1c, 0x70, 0x00, 0x00, 0x00, 0x00, 0x00,
   0x00, 0x00, 0x00, 0x00, 0xc0, 0x01, 0x0c, 0xe0, 0x81, 0x03, 0x80, 0x00,
   0x00, 0x00, 0x00, 0x00, 0x00, 0x00, 0x00, 0x00, 0xc0, 0x01, 0x05, 0x80,
   0x00, 0x00, 0x80, 0x00, 0x00, 0x00, 0x00, 0x00, 0x00, 0x00, 0x00, 0x00,
   0xc0, 0x01, 0x04, 0x60, 0x00, 0x00, 0x80, 0x01, 0x00, 0x00, 0x00, 0x00,
   0x00, 0x00, 0x00, 0x00, 0xe0, 0x01, 0x06, 0x30, 0x00, 0x00, 0xf8, 0x0f,
   0x00, 0x00, 0x00, 0x00, 0x00, 0x00, 0x00, 0x00, 0xe0, 0x81, 0x02, 0x13,
   0x00, 0x00, 0x0e, 0x10, 0x00, 0x00, 0x00, 0x00, 0x00, 0x00, 0x00, 0x00,
   0x50, 0x41, 0x01, 0x19, 0x80, 0x07, 0x83, 0x17, 0x00, 0x00, 0x00, 0x00,
   0x00, 0x00, 0x00, 0x00, 0x78, 0x09, 0x03, 0x09, 0xe0, 0x38, 0xc1, 0x1f,
   0x00, 0x00, 0x00, 0x00, 0x00, 0x00, 0x00, 0x00, 0xd8, 0xa9, 0x01, 0x11,
   0x30, 0xc0, 0xe1, 0x1f, 0x00, 0x00, 0x00, 0x00, 0x00, 0x00, 0x00, 0x00,
   0x0e, 0x6b, 0x81, 0x21, 0x10, 0xf0, 0xe1, 0x1f, 0xe0, 0x1f, 0x00, 0x00,
   0x00, 0x00, 0x00, 0x00, 0x21, 0xeb, 0x81, 0x20, 0x10, 0xf8, 0xe1, 0x1f,
   0xf0, 0x3f, 0x00, 0x00, 0x00, 0x00, 0x00, 0x00, 0xa0, 0x19, 0x80, 0x40,
   0x10, 0xfc, 0xc3, 0x0f, 0xfe, 0x3f, 0x00, 0x00, 0x00, 0x00, 0x00, 0x00,
   0xc0, 0x03, 0x80, 0x40, 0x10, 0xfc, 0xfe, 0x87, 0xfb, 0x3f, 0x00, 0x00,
   0x00, 0x00, 0x00, 0x00, 0xa0, 0x03, 0x40, 0x40, 0x10, 0xfc, 0x06, 0xfc,
   0xf0, 0x3f, 0x00, 0x00, 0x00, 0x00, 0x00, 0x00, 0xd0, 0x03, 0x40, 0xc0,
   0x60, 0x7c, 0x02, 0x00, 0xc0, 0x0f, 0x00, 0x00, 0x00, 0x00, 0x00, 0x00,
   0x30, 0x00, 0x40, 0x80, 0xc0, 0x1d, 0x03, 0x00, 0x00, 0x0c, 0x00, 0x00,
   0x00, 0x00, 0x00, 0x00, 0x00, 0x00, 0x40, 0x80, 0x00, 0xff, 0x01, 0x00,
   0x00, 0x08, 0x00, 0x00, 0x00, 0x00, 0x00, 0x00, 0x30, 0x00, 0x40, 0x80,
   0x00, 0x00, 0x00, 0x00, 0x00, 0x04, 0x00, 0x00, 0x00, 0x00, 0x00, 0x00,
   0x10, 0x00, 0x40, 0x80, 0x00, 0x00, 0x00, 0x00, 0x00, 0x07, 0x00, 0x00,
   0x00, 0x00, 0x00, 0x00, 0x10, 0x00, 0x40, 0x80, 0x00, 0x00, 0x00, 0x00,
   0xe0, 0x01, 0x00, 0x00, 0x00, 0x00, 0x00, 0x00, 0x10, 0x00, 0x40, 0x80,
   0x00, 0x00, 0x00, 0x00, 0x3c, 0x00, 0x00, 0xfc, 0x03, 0x00, 0x00, 0x00,
   0x00, 0x00, 0x40, 0x80, 0x00, 0x00, 0x0c, 0xc0, 0x27, 0x00, 0x00, 0x06,
   0x0e, 0x00, 0x00, 0x00, 0x00, 0x00, 0x40, 0x80, 0x00, 0x00, 0xfc, 0x3f,
   0x27, 0x00, 0x00, 0x01, 0x38, 0x00, 0x00, 0x00, 0x00, 0x00, 0x40, 0x80,
   0x00, 0x00, 0xc6, 0x07, 0x23, 0x00, 0x00, 0x03, 0x20, 0x00, 0x00, 0x00,
   0x00, 0x00, 0x80, 0x80, 0x00, 0x00, 0x83, 0x07, 0x30, 0x00, 0x00, 0xff,
   0x3f, 0x00, 0x00, 0x00, 0x00, 0x00, 0x80, 0x80, 0x00, 0x80, 0x07, 0x00,
   0x10, 0x00, 0x00, 0x03, 0x38, 0x00, 0x00, 0x00, 0x00, 0x00, 0x80, 0x41,
   0x00, 0x00, 0x0c, 0x00, 0x10, 0x00, 0x00, 0x03, 0x38, 0x07, 0x00, 0x00,
   0x00, 0x00, 0x00, 0x61, 0x00, 0x00, 0x18, 0x00, 0x18, 0x00, 0x00, 0x03,
   0xd8, 0x0d, 0x00, 0x00, 0x00, 0x00, 0x00, 0x32, 0x00, 0x00, 0xf0, 0x80,
   0x0f, 0x00, 0x00, 0x03, 0x78, 0x18, 0x00, 0x00, 0x00, 0x00, 0x00, 0x0c,
   0x00, 0x00, 0x00, 0x7f, 0x00, 0x00, 0x00, 0x03, 0x38, 0x10, 0x00, 0x00,
   0x00, 0x00, 0x00, 0x04, 0x00, 0x00, 0x00, 0x80, 0x00, 0x00, 0x00, 0x03,
   0x18, 0x18, 0x00, 0x00, 0x00, 0x00, 0x00, 0x06, 0x00, 0x00, 0x00, 0x80,
   0x01, 0x00, 0x00, 0x03, 0x38, 0x0c, 0x00, 0x00, 0x00, 0x00, 0x00, 0x02,
   0x00, 0x00, 0x00, 0x00, 0x01, 0x00, 0x00, 0x03, 0xf8, 0x07, 0x00, 0x00,
   0x00, 0x00, 0x80, 0x01, 0x42, 0x00, 0x00, 0x00, 0x02, 0x00, 0x00, 0x03,
   0x18, 0x00, 0x00, 0x00, 0x00, 0x00, 0xc0, 0x00, 0x42, 0x00, 0x00, 0x00,
   0x04, 0x00, 0x00, 0x03, 0x18, 0x00, 0x00, 0x00, 0x00, 0x00, 0xc0, 0x00,
   0x42, 0x00, 0x00, 0x00, 0x0c, 0x00, 0x00, 0x03, 0x18, 0x00, 0x00, 0x00,
   0x00, 0x00, 0x40, 0x00, 0x22, 0x00, 0x00, 0x00, 0x08, 0x00, 0x00, 0x03,
   0x18, 0x00, 0x00, 0x00, 0x00, 0x00, 0x40, 0x00, 0x21, 0x00, 0x00, 0x00,
   0x08, 0x00, 0x00, 0xff, 0x1f, 0x00, 0x00, 0x00, 0x00, 0x00, 0x40, 0x00,
   0x21, 0x00, 0x00, 0x00, 0x08, 0x00, 0x00, 0x00, 0x00, 0x00, 0x00, 0x00,
   0x00, 0x00, 0x40, 0x00, 0x21, 0x00, 0x00, 0x00, 0x10, 0x00, 0x00, 0x00,
   0x00, 0x00, 0x00, 0x00, 0x00, 0x00, 0x40, 0x00, 0x21, 0x00, 0x00, 0x00,
   0x10, 0x00, 0x00, 0x00, 0x00, 0x00, 0x00, 0x00, 0x00, 0x00, 0x40, 0x00,
   0x21, 0x00, 0x00, 0x00, 0x30, 0x00, 0x00, 0x00, 0x00, 0x00, 0x00, 0x00,
   0x00, 0x00, 0xc0, 0x00, 0x21, 0x00, 0x00, 0x00, 0x20, 0x00, 0x00, 0x00,
   0x00, 0x00, 0x00, 0x00, 0x00, 0x00, 0xc0, 0x00, 0x23, 0x00, 0x00, 0x00,
   0x20, 0x00, 0x00, 0x00, 0x00, 0x00, 0x00, 0x00, 0x00, 0x00, 0xc0, 0x00,
   0x22, 0x00, 0x00, 0x00, 0x20, 0x00, 0x00, 0x00, 0x00, 0x00, 0x00, 0x00,
   0x00, 0x00, 0x40, 0x00, 0x22, 0x00, 0x00, 0x00, 0x38, 0x00, 0x00, 0x00,
   0x00, 0x00, 0x00, 0x00};
